# xmcd
#
# Track frame offsets: 
#        150
#        19012
#        32880
#        48637
#        67972
#        98232
#        116790
#        134622
#        154062
#        173057
#
# Disc length: 2522 seconds
#
# Revision: 0
# Processed by: cddbd v1.5.2PL0 Copyright (c) Steve Scherf et al.
# Submitted via: ExactAudioCopy v0.99pb5
#
DISCID=8709d80a
DTITLE=Theo Degler - Horizonte 1
DYEAR=1992
DGENRE=Game
TTITLE0=Steh auf Gemeinde Jesu
TTITLE1=Jesus Christus ist aller Herr
TTITLE2=Ich wil Ihn preisen
TTITLE3=Hosianna, Maranatha
TTITLE4=Hebd die Haende auf
TTITLE5=Herr Deine Guete
TTITLE6=Ehre sei dem Hernn
TTITLE7=Ich steh in Diener Gegenwart
TTITLE8=Preist Ihn
TTITLE9=Wir Danken Dir
EXTD=
EXTT0=
EXTT1=
EXTT2=
EXTT3=
EXTT4=
EXTT5=
EXTT6=
EXTT7=
EXTT8=
EXTT9=
PLAYORDER=
